<svg version="1.2" xmlns="http://www.w3.org/2000/svg" viewBox="0 0 94 96" width="94" height="96" fill="#5284ff"><defs><clipPath clipPathUnits="userSpaceOnUse" id="cp1"><path d="m0 0h94v96h-94z"/></clipPath></defs><style></style><g clip-path="url(#cp1)"><path  d="m46.4 1.2c-25.6 0-46.4 20.8-46.4 46.4 0 25.6 20.8 46.4 46.4 46.4 25.6 0 46.4-20.8 46.4-46.4 0-25.6-20.8-46.4-46.4-46.4zm0 85.3c-21.4 0-38.9-17.5-38.9-38.9 0-21.5 17.5-39 38.9-39 21.5 0 39 17.5 39 39 0 21.4-17.5 38.9-39 38.9z"/><path  d="m61.2 32.8l-21.7 21.7-7.9-8c-1.4-1.4-3.8-1.4-5.3 0-1.4 1.5-1.4 3.8 0 5.3l10.6 10.6c0.7 0.7 1.7 1.1 2.6 1.1 1 0 2-0.4 2.7-1.1l24.3-24.3c1.5-1.5 1.5-3.9 0-5.3-1.5-1.5-3.8-1.5-5.3 0z"/></g></svg>