<svg version="1.2" xmlns="http://www.w3.org/2000/svg" viewBox="0 0 88 162" width="88" height="162" fill="#8492af"><defs><clipPath clipPathUnits="userSpaceOnUse" id="cp1"><path d="m0 0h88v162h-88z"/></clipPath></defs><style></style><g clip-path="url(#cp1)"><path  d="m83.4-0.2h-20.8c-23.4 0-38.4 15.5-38.4 39.4v18.2h-20.9c-1.8 0-3.3 1.5-3.3 3.3v26.3c0 1.8 1.5 3.3 3.3 3.3h20.9v66.4c0 1.8 1.4 3.3 3.2 3.3h27.3c1.8 0 3.2-1.5 3.2-3.3v-66.4h24.5c1.8 0 3.2-1.5 3.2-3.3v-26.3c0-0.9-0.3-1.7-0.9-2.3-0.6-0.7-1.5-1-2.3-1h-24.5v-15.4c0-7.4 1.8-11.2 11.5-11.2h13.9c1.9 0 3.3-1.4 3.3-3.2v-24.5c0-1.8-1.4-3.3-3.2-3.3z"/></g></svg>