<svg version="1.2" xmlns="http://www.w3.org/2000/svg" viewBox="0 0 40 40" width="40" height="40"><style>.a{fill:none;stroke:#5384ff;stroke-linecap:round;stroke-linejoin:round;stroke-width:4}.b{fill:#5384ff}</style><path class="a" d="m38 38h-36v-32h36z"/><path class="a" d="m28 2v8"/><path class="a" d="m12 2v8"/><path class="b" d="m13.1 22h-2.2c-0.5 0-0.9-0.4-0.9-0.9v-2.2c0-0.5 0.4-0.9 0.9-0.9h2.2c0.5 0 0.9 0.4 0.9 0.9v2.2c0 0.5-0.4 0.9-0.9 0.9z"/><path class="b" d="m21.1 22h-2.2c-0.5 0-0.9-0.4-0.9-0.9v-2.2c0-0.5 0.4-0.9 0.9-0.9h2.2c0.5 0 0.9 0.4 0.9 0.9v2.2c0 0.5-0.4 0.9-0.9 0.9z"/><path class="b" d="m29.1 22h-2.2c-0.5 0-0.9-0.4-0.9-0.9v-2.2c0-0.5 0.4-0.9 0.9-0.9h2.2c0.5 0 0.9 0.4 0.9 0.9v2.2c0 0.5-0.4 0.9-0.9 0.9z"/><path class="b" d="m13.1 30h-2.2c-0.5 0-0.9-0.4-0.9-0.9v-2.2c0-0.5 0.4-0.9 0.9-0.9h2.2c0.5 0 0.9 0.4 0.9 0.9v2.2c0 0.5-0.4 0.9-0.9 0.9z"/><path class="b" d="m21.1 30h-2.2c-0.5 0-0.9-0.4-0.9-0.9v-2.2c0-0.5 0.4-0.9 0.9-0.9h2.2c0.5 0 0.9 0.4 0.9 0.9v2.2c0 0.5-0.4 0.9-0.9 0.9z"/><path class="b" d="m29.1 30h-2.2c-0.5 0-0.9-0.4-0.9-0.9v-2.2c0-0.5 0.4-0.9 0.9-0.9h2.2c0.5 0 0.9 0.4 0.9 0.9v2.2c0 0.5-0.4 0.9-0.9 0.9z"/></svg>