<svg version="1.2" xmlns="http://www.w3.org/2000/svg" viewBox="0 0 150 150" width="150" height="150" fill="#8492af"><defs><clipPath clipPathUnits="userSpaceOnUse" id="cp1"><path d="m0 0h150v150h-150z"/></clipPath></defs><style></style><g clip-path="url(#cp1)"><path  d="m7.9 37.9c0 12.4 4.2 21.4 12.4 26.7 6.7 4.3 14.5 5 18.5 5q1.5 0 2.3-0.1c0 0-1.2 8.4 5 16.6h-0.3c-10.8 0-45.8 2.3-45.8 31.1 0 29.3 32.2 30.8 38.6 30.8 0.5 0 0.8 0 0.8 0 0.1 0 0.6 0 1.4 0 4.1 0 14.8-0.5 24.8-5.4 12.8-6.2 19.4-17.1 19.4-32.3 0-14.7-10-23.5-17.3-29.9-4.4-3.9-8.2-7.3-8.2-10.5 0-3.4 2.8-5.9 6.3-9 5.8-5.2 11.2-12.5 11.2-26.3 0-12.1-1.6-20.3-11.3-25.5 1-0.5 4.6-0.9 6.3-1.1 5.3-0.7 13-1.5 13-5.8v-0.9h-38.3c-0.4 0-38.8 1.5-38.8 36.6zm61.9 75.1c0.7 11.7-9.3 20.4-24.4 21.5-15.2 1.1-27.8-5.8-28.6-17.5-0.3-5.6 2.1-11.1 7-15.5 4.9-4.5 11.6-7.2 19-7.8q1.3 0 2.6 0c14.1 0 23.7 8.3 24.4 19.3zm-10-83.1c3.7 13.2-1.9 27-11 29.6q-1.6 0.4-3.2 0.4c-8.3 0-16.5-8.4-19.5-19.9-1.7-6.5-1.6-12.2 0.4-17.6 1.9-5.4 5.3-9 9.6-10.2q1.6-0.5 3.3-0.5c10 0 16.4 4.2 20.4 18.2zm64.5 28.8v-25h-15.8v25h-25v15.8h25v25h15.8v-25h25.1v-15.8z"/></g></svg>