<svg version="1.2" xmlns="http://www.w3.org/2000/svg" viewBox="0 0 1131 316" width="1131" height="316">
	<title>Warstwa 1</title>
	<defs>
		<linearGradient id="g1" x2="1" gradientUnits="userSpaceOnUse" gradientTransform="matrix(290.497,-243.756,288.114,343.361,-188.233,90.542)">
			<stop offset="0" stop-color="#5794ff"/>
			<stop offset="1" stop-color="#2b4d77"/>
		</linearGradient>
		<linearGradient id="g2" x2="1" gradientUnits="userSpaceOnUse" gradientTransform="matrix(305.505,105.194,-124.127,360.492,114.316,-98.965)">
			<stop offset="0" stop-color="#5794ff"/>
			<stop offset="1" stop-color="#2b4d77"/>
		</linearGradient>
		<linearGradient id="g3" x2="1" gradientUnits="userSpaceOnUse" gradientTransform="matrix(195.162,289.339,-225.732,152.258,277.452,-145.822)">
			<stop offset="0" stop-color="#5794ff"/>
			<stop offset="1" stop-color="#2b4d77"/>
		</linearGradient>
	</defs>
	<style>
		tspan { white-space:pre } 
		.s0 { fill: #1c344c } 
		.s1 { fill: url(#g1) } 
		.s2 { fill: url(#g2) } 
		.s3 { fill: url(#g3) } 
		.t4 { font-size: 100px;fill: #ffffff;font-weight: 500;font-family: "Roboto-Medium", "Roboto" } 
	</style>
	<g id="Warstwa 1">
		<g id="&lt;Group&gt;">
			<path id="&lt;Compound Path&gt;" fill-rule="evenodd" class="s0" d="m315.2 157.3c0 86.8-70.3 157.2-157.2 157.2-86.8 0-157.2-70.4-157.2-157.2 0-86.8 70.4-157.2 157.2-157.2 86.9 0 157.2 70.4 157.2 157.2zm-80 0c0-42.6-34.5-77.2-77.2-77.2-42.6 0-77.1 34.6-77.1 77.2 0 42.6 34.5 77.2 77.1 77.2 42.7 0 77.2-34.6 77.2-77.2z"/>
			<path id="&lt;Path&gt;" class="s1" d="m117.7 5.2l-0.1 0.1c-67.6 17.7-117.4 79.1-117.4 152.3 0 87 70.5 157.5 157.5 157.5 13.8 0 27.2-1.8 40-5.2-67.6-17.7-117.5-79.2-117.5-152.3 0-42.8 34.7-77.5 77.5-77.5 42.8 0 77.5 34.7 77.5 77.5 0-73.2-49.9-134.7-117.5-152.4z"/>
			<path id="&lt;Path&gt;" class="s2" d="m197.7 309.9h0.1c67.6-17.7 117.4-79.2 117.4-152.3 0-87-70.5-157.5-157.5-157.5-13.8 0-27.2 1.8-40 5.1 67.7 17.7 117.5 79.2 117.5 152.4 0 42.8-34.7 77.5-77.5 77.5-42.8 0-77.5-34.7-77.5-77.5 0 73.1 49.9 134.6 117.5 152.3z"/>
			<path id="&lt;Path&gt;" class="s3" d="m293.8 237.1l0.1-0.2c35.2-60.3 27-139-24.7-190.7-61.5-61.5-161.2-61.5-222.7 0-9.8 9.8-18 20.5-24.7 31.9 60.4-35.3 139.1-27.1 190.9 24.7 30.2 30.2 30.2 79.3 0 109.6-30.3 30.2-79.4 30.2-109.6 0h-0.1c51.8 51.7 130.5 60 190.8 24.7z"/>
		</g>
		<text id="Merkury
" style="transform: matrix(2,0,0,2,395,222)" >
			<tspan x="0" y="0" class="t4">Merkury
</tspan>
		</text>
	</g>
</svg>