<svg version="1.2" xmlns="http://www.w3.org/2000/svg" viewBox="0 0 27 25" width="27" height="25" fill="#8492af"><defs><clipPath clipPathUnits="userSpaceOnUse" id="cp1"><path d="m0 0h27v25h-27z"/></clipPath></defs><style></style><g clip-path="url(#cp1)"><path  d="m26.7 3.9q-1.5 0.7-3.2 0.9c1.2-0.7 2-1.8 2.4-3.1q-1.6 1-3.4 1.4c-1-1.1-2.5-1.8-4-1.8-3.1 0-5.5 2.5-5.5 5.5q0 0.6 0.1 1.2c-4.5-0.2-8.5-2.4-11.2-5.7-0.5 0.8-0.8 1.8-0.8 2.8 0 1.9 1 3.6 2.4 4.5-0.8 0-1.7-0.2-2.4-0.7v0.1c0 2.7 1.9 4.9 4.4 5.4q-0.7 0.2-1.5 0.2-0.5 0-1-0.1c0.7 2.1 2.7 3.7 5.1 3.8-1.9 1.4-4.2 2.3-6.8 2.3q-0.7 0-1.3-0.1c2.4 1.6 5.3 2.5 8.4 2.5 10 0 15.6-8.3 15.6-15.6l-0.1-0.7c1.1-0.7 2-1.7 2.8-2.8z"/></g></svg>